HIERARCHY
ROOT Hips
{
	OFFSET 0.000000 71.427986 0.000000
	CHANNELS 6 Xposition Yposition Zposition Xrotation Yrotation Zrotation
	JOINT Pelvis
	{
		OFFSET 0.000000 0.000000 0.000000
		CHANNELS 3 Xrotation Yrotation Zrotation
		JOINT LeftUpLeg
		{
			OFFSET 6.797100 -2.508499 -1.318700
			CHANNELS 3 Xrotation Yrotation Zrotation
			JOINT LeftLeg
			{
				OFFSET 0.069008 -29.241863 0.690200
				CHANNELS 3 Xrotation Yrotation Zrotation
				JOINT LeftFoot
				{
					OFFSET -0.069008 -29.568123 -0.266800
					CHANNELS 3 Xrotation Yrotation Zrotation
					JOINT LeftToeBase
					{
						OFFSET 3.145500 -8.631000 16.059900
						CHANNELS 3 Xrotation Yrotation Zrotation
						End Site
						{
							OFFSET 0.000000 18.501587 0.000000
						}
					}
				}
			}
			JOINT Left_ShortSleeve
			{
				OFFSET 0.265923 -10.480953 1.153800
				CHANNELS 3 Xrotation Yrotation Zrotation
				End Site
				{
					OFFSET 1.725763 19.823879 0.000000
				}
			}
		}
		JOINT RightUpLeg
		{
			OFFSET -6.797100 -2.508499 -1.318700
			CHANNELS 3 Xrotation Yrotation Zrotation
			JOINT RightLeg
			{
				OFFSET -0.082453 -29.241932 0.688000
				CHANNELS 3 Xrotation Yrotation Zrotation
				JOINT RightFoot
				{
					OFFSET 0.082453 -29.568058 -0.264600
					CHANNELS 3 Xrotation Yrotation Zrotation
					JOINT RightToeBase
					{
						OFFSET -3.115300 -8.682800 16.113400
						CHANNELS 3 Xrotation Yrotation Zrotation
						End Site
						{
							OFFSET 0.000000 18.567114 0.000000
						}
					}
				}
			}
			JOINT Right_ShortSleeve
			{
				OFFSET -0.265923 -10.480953 1.153800
				CHANNELS 3 Xrotation Yrotation Zrotation
				End Site
				{
					OFFSET -1.725766 19.823910 0.000000
				}
			}
		}
	}
	JOINT Spine
	{
		OFFSET 0.000000 13.368103 0.470500
		CHANNELS 3 Xrotation Yrotation Zrotation
		JOINT Spine1
		{
			OFFSET 0.147000 13.837402 0.538800
			CHANNELS 3 Xrotation Yrotation Zrotation
			JOINT Spine2
			{
				OFFSET 0.168000 16.242897 -1.435500
				CHANNELS 3 Xrotation Yrotation Zrotation
				JOINT Neck
				{
					OFFSET 0.217200 18.631500 -1.679100
					CHANNELS 3 Xrotation Yrotation Zrotation
					JOINT Head
					{
						OFFSET 0.000000 6.599396 1.385900
						CHANNELS 3 Xrotation Yrotation Zrotation
						JOINT Hat
						{
							OFFSET -0.532200 27.220596 -10.096100
							CHANNELS 3 Xrotation Yrotation Zrotation
							End Site
							{
								OFFSET 0.000000 22.029861 0.000000
							}
						}
						JOINT HairD
						{
							OFFSET -10.777400 17.437393 -1.325900
							CHANNELS 3 Xrotation Yrotation Zrotation
							JOINT HairD1
							{
								OFFSET -3.290299 -11.051193 1.062200
								CHANNELS 3 Xrotation Yrotation Zrotation
								End Site
								{
									OFFSET 0.000000 11.579437 0.000000
								}
							}
						}
						JOINT HairB
						{
							OFFSET -10.777400 17.437393 1.467900
							CHANNELS 3 Xrotation Yrotation Zrotation
							JOINT HairB1
							{
								OFFSET -1.561200 -12.956299 3.590200
								CHANNELS 3 Xrotation Yrotation Zrotation
								End Site
								{
									OFFSET 0.000000 13.534866 0.000000
								}
							}
						}
						JOINT HairA
						{
							OFFSET 9.713100 17.437393 1.467900
							CHANNELS 3 Xrotation Yrotation Zrotation
							JOINT HairA1
							{
								OFFSET 1.561200 -12.956299 3.590200
								CHANNELS 3 Xrotation Yrotation Zrotation
								End Site
								{
									OFFSET 0.000000 13.534866 0.000000
								}
							}
						}
						JOINT HairC
						{
							OFFSET 9.713100 17.437393 -1.325900
							CHANNELS 3 Xrotation Yrotation Zrotation
							JOINT HairC1
							{
								OFFSET 3.290300 -11.051193 1.062200
								CHANNELS 3 Xrotation Yrotation Zrotation
								End Site
								{
									OFFSET 0.000000 11.579437 0.000000
								}
							}
						}
					}
				}
				JOINT LeftShoulder
				{
					OFFSET 5.101800 15.108002 -2.763700
					CHANNELS 3 Xrotation Yrotation Zrotation
					JOINT LeftArm
					{
						OFFSET 9.825497 2.506317 -1.597400
						CHANNELS 3 Xrotation Yrotation Zrotation
						JOINT LeftForeArm
						{
							OFFSET 21.966244 0.000000 0.000000
							CHANNELS 3 Xrotation Yrotation Zrotation
							JOINT LeftHand
							{
								OFFSET 33.879036 0.000000 0.000000
								CHANNELS 3 Xrotation Yrotation Zrotation
								JOINT LeftHandThumb1
								{
									OFFSET 6.715286 -2.359680 3.363841
									CHANNELS 3 Xrotation Yrotation Zrotation
									JOINT LeftHandThumb2
									{
										OFFSET 2.507072 -1.447464 1.447461
										CHANNELS 3 Xrotation Yrotation Zrotation
										JOINT LeftHandThumb3
										{
											OFFSET 2.898338 -1.673355 1.673357
											CHANNELS 3 Xrotation Yrotation Zrotation
											End Site
											{
												OFFSET -0.295959 3.727692 -0.131651
											}
										}
									}
								}
								JOINT LeftHandIndex1
								{
									OFFSET 14.190811 -0.254547 3.840278
									CHANNELS 3 Xrotation Yrotation Zrotation
									JOINT LeftHandIndex2
									{
										OFFSET 3.551727 0.000000 -0.000000
										CHANNELS 3 Xrotation Yrotation Zrotation
										JOINT LeftHandIndex3
										{
											OFFSET 2.894196 0.000000 0.000000
											CHANNELS 3 Xrotation Yrotation Zrotation
											End Site
											{
												OFFSET -1.000603 2.690872 0.366626
											}
										}
									}
								}
								JOINT LeftHandMiddle1
								{
									OFFSET 13.776489 0.000000 0.000000
									CHANNELS 3 Xrotation Yrotation Zrotation
									JOINT LeftHandMiddle2
									{
										OFFSET 3.438232 0.000000 0.000000
										CHANNELS 3 Xrotation Yrotation Zrotation
										JOINT LeftHandMiddle3
										{
											OFFSET 3.691551 0.000000 0.000000
											CHANNELS 3 Xrotation Yrotation Zrotation
											End Site
											{
												OFFSET -1.082298 3.499527 0.457670
											}
										}
									}
								}
								JOINT LeftHandRing1
								{
									OFFSET 13.966164 -0.268127 -3.067488
									CHANNELS 3 Xrotation Yrotation Zrotation
									JOINT LeftHandRing2
									{
										OFFSET 3.162567 0.000000 0.000000
										CHANNELS 3 Xrotation Yrotation Zrotation
										JOINT LeftHandRing3
										{
											OFFSET 3.324348 0.000000 0.000000
											CHANNELS 3 Xrotation Yrotation Zrotation
											End Site
											{
												OFFSET -0.861900 3.184998 0.405154
											}
										}
									}
								}
								JOINT LeftHandPinky1
								{
									OFFSET 13.131393 -0.168503 -5.746925
									CHANNELS 3 Xrotation Yrotation Zrotation
									JOINT LeftHandPinky2
									{
										OFFSET 2.849182 0.000000 0.000000
										CHANNELS 3 Xrotation Yrotation Zrotation
										JOINT LeftHandPinky3
										{
											OFFSET 2.805038 0.000000 0.000000
											CHANNELS 3 Xrotation Yrotation Zrotation
											End Site
											{
												OFFSET -0.882500 2.642609 0.325652
											}
										}
									}
								}
							}
							JOINT Left_Sleeve
							{
								OFFSET 6.592125 -0.646545 0.805568
								CHANNELS 3 Xrotation Yrotation Zrotation
								End Site
								{
									OFFSET -0.000179 20.275787 -0.000000
								}
							}
						}
					}
				}
				JOINT RightShoulder
				{
					OFFSET -5.731700 15.108002 -2.763700
					CHANNELS 3 Xrotation Yrotation Zrotation
					JOINT RightArm
					{
						OFFSET -9.825497 2.506317 -1.597400
						CHANNELS 3 Xrotation Yrotation Zrotation
						JOINT RightForeArm
						{
							OFFSET -21.966242 0.000000 0.000000
							CHANNELS 3 Xrotation Yrotation Zrotation
							JOINT RightHand
							{
								OFFSET -33.879032 0.000000 0.000000
								CHANNELS 3 Xrotation Yrotation Zrotation
								JOINT RightHandThumb1
								{
									OFFSET -6.715286 -2.359680 3.363841
									CHANNELS 3 Xrotation Yrotation Zrotation
									JOINT RightHandThumb2
									{
										OFFSET -2.507072 -1.447464 1.447461
										CHANNELS 3 Xrotation Yrotation Zrotation
										JOINT RightHandThumb3
										{
											OFFSET -2.898338 -1.673355 1.673357
											CHANNELS 3 Xrotation Yrotation Zrotation
											End Site
											{
												OFFSET 0.295959 3.727692 -0.131651
											}
										}
									}
								}
								JOINT RightHandIndex1
								{
									OFFSET -14.190811 -0.254547 3.840278
									CHANNELS 3 Xrotation Yrotation Zrotation
									JOINT RightHandIndex2
									{
										OFFSET -3.551727 0.000000 -0.000000
										CHANNELS 3 Xrotation Yrotation Zrotation
										JOINT RightHandIndex3
										{
											OFFSET -2.894196 0.000000 0.000000
											CHANNELS 3 Xrotation Yrotation Zrotation
											End Site
											{
												OFFSET 1.000603 2.690872 0.366626
											}
										}
									}
								}
								JOINT RightHandMiddle1
								{
									OFFSET -13.776489 0.000000 0.000000
									CHANNELS 3 Xrotation Yrotation Zrotation
									JOINT RightHandMiddle2
									{
										OFFSET -3.438232 0.000000 0.000000
										CHANNELS 3 Xrotation Yrotation Zrotation
										JOINT RightHandMiddle3
										{
											OFFSET -3.691551 0.000000 0.000000
											CHANNELS 3 Xrotation Yrotation Zrotation
											End Site
											{
												OFFSET 1.082298 3.499527 0.457670
											}
										}
									}
								}
								JOINT RightHandRing1
								{
									OFFSET -13.966164 -0.268127 -3.067488
									CHANNELS 3 Xrotation Yrotation Zrotation
									JOINT RightHandRing2
									{
										OFFSET -3.162567 0.000000 0.000000
										CHANNELS 3 Xrotation Yrotation Zrotation
										JOINT RightHandRing3
										{
											OFFSET -3.324348 0.000000 0.000000
											CHANNELS 3 Xrotation Yrotation Zrotation
											End Site
											{
												OFFSET 0.861900 3.184998 0.405154
											}
										}
									}
								}
								JOINT RightHandPinky1
								{
									OFFSET -13.131393 -0.168503 -5.746925
									CHANNELS 3 Xrotation Yrotation Zrotation
									JOINT RightHandPinky2
									{
										OFFSET -2.849182 0.000000 0.000000
										CHANNELS 3 Xrotation Yrotation Zrotation
										JOINT RightHandPinky3
										{
											OFFSET -2.805038 0.000000 0.000000
											CHANNELS 3 Xrotation Yrotation Zrotation
											End Site
											{
												OFFSET 0.882500 2.642609 0.325652
											}
										}
									}
								}
							}
							JOINT Right_Sleeve
							{
								OFFSET -6.592125 -0.646545 0.805568
								CHANNELS 3 Xrotation Yrotation Zrotation
								End Site
								{
									OFFSET 0.000179 20.275787 -0.000000
								}
							}
						}
					}
				}
				JOINT Bind_Right_JacketString
				{
					OFFSET -3.534800 11.969597 7.200700
					CHANNELS 3 Xrotation Yrotation Zrotation
					JOINT Bind_Right_JacketString1
					{
						OFFSET -0.319900 -6.102600 2.794100
						CHANNELS 3 Xrotation Yrotation Zrotation
						End Site
						{
							OFFSET 0.000000 6.719452 0.000000
						}
					}
				}
				JOINT Bind_Left_JacketString
				{
					OFFSET 2.904800 11.969597 7.200700
					CHANNELS 3 Xrotation Yrotation Zrotation
					JOINT Bind_Left_JacketString1
					{
						OFFSET 0.364800 -5.904503 3.186800
						CHANNELS 3 Xrotation Yrotation Zrotation
						End Site
						{
							OFFSET 0.000000 6.719513 0.000000
						}
					}
				}
				JOINT HairE
				{
					OFFSET 5.915200 17.612701 -11.592200
					CHANNELS 3 Xrotation Yrotation Zrotation
					JOINT HairE1
					{
						OFFSET 0.289200 -7.171898 -1.284500
						CHANNELS 3 Xrotation Yrotation Zrotation
						End Site
						{
							OFFSET 0.000000 7.291756 0.000000
						}
					}
				}
				JOINT HairF
				{
					OFFSET -0.864800 17.612701 -11.592200
					CHANNELS 3 Xrotation Yrotation Zrotation
					JOINT HairF1
					{
						OFFSET 0.000000 -14.087097 -2.127501
						CHANNELS 3 Xrotation Yrotation Zrotation
						End Site
						{
							OFFSET 0.000000 14.246841 0.000000
						}
					}
				}
				JOINT HairG
				{
					OFFSET -8.087700 17.612701 -11.592200
					CHANNELS 3 Xrotation Yrotation Zrotation
					JOINT HairG1
					{
						OFFSET -0.293600 -6.081398 -0.910100
						CHANNELS 3 Xrotation Yrotation Zrotation
						End Site
						{
							OFFSET 0.000000 6.156120 0.000000
						}
					}
				}
			}
		}
	}
	JOINT Pouch
	{
		OFFSET 0.000000 4.394501 10.847300
		CHANNELS 3 Xrotation Yrotation Zrotation
		End Site
		{
			OFFSET 0.000000 21.880577 0.000000
		}
	}
	JOINT Bag
	{
		OFFSET -13.229000 4.813004 -0.593300
		CHANNELS 3 Xrotation Yrotation Zrotation
		End Site
		{
			OFFSET 0.000000 21.880577 0.000000
		}
	}
	JOINT OccupyGuyFacialAnim_Joint
	{
		OFFSET 1.000000 -70.206398 -1.655000
		CHANNELS 3 Xrotation Yrotation Zrotation
		End Site
		{
			OFFSET 0.000000 21.880577 0.000000
		}
	}
}
MOTION
Frames: 4
Frame Time: 0.016667
-0.005197 41.864532 1.187776 0.144289 0.170059 0.959586 0.000000 0.000000 -0.000000 -87.442588 -5.013454 11.051643 82.703728 6.683142 0.254020 5.741839 -7.114903 -5.761708 0.000000 0.000000 0.000000 0.000000 -0.000000 0.000000 -88.202324 6.564479 -7.385546 82.640542 -6.347976 -1.873722 6.764792 0.060928 6.763102 0.000000 0.000000 0.000000 -0.000000 0.000000 -0.000000 10.430466 0.012018 -1.571072 -0.199273 0.216427 -0.355483 -0.199596 0.248527 -0.300892 -1.001770 -1.276608 0.469464 -8.883412 -4.319390 -5.320495 -0.000000 -0.000000 0.000000 -0.000000 -0.000000 0.000000 -0.000000 -0.000000 0.000000 -0.000000 -0.000000 0.000000 -0.000000 -0.000001 0.000000 -0.000000 -0.000000 0.000000 -0.000000 -0.000001 0.000000 -0.000000 -0.000000 0.000000 -0.000000 -0.000000 0.000000 0.823520 -15.262025 -7.868748 4.746757 -21.216408 -54.862193 -0.000060 -62.197533 -0.000047 31.062952 4.315302 41.770210 6.610613 1.798251 20.801497 2.716396 20.172554 -24.389168 -0.000000 -0.000001 -0.000000 -0.224157 2.792779 -26.913884 0.396825 2.121276 -21.189296 0.000001 0.000000 -0.000000 1.299139 7.334328 -16.510942 0.329961 1.940094 -19.302451 0.000000 0.000000 0.000001 1.797272 9.808448 -14.182650 0.205955 1.541196 -15.221577 0.000002 0.000003 -0.000005 2.041518 10.867651 -13.920346 0.168521 1.396435 -13.761324 -0.000001 -0.000001 0.000003 0.000002 -0.000000 0.000002 3.171098 -4.378722 8.782888 -3.950251 37.253395 63.733670 0.000014 55.137918 -0.000018 43.537279 4.740993 -36.277956 -9.383507 -1.613324 -17.604705 3.563441 -24.331456 34.658818 -0.000002 0.000000 -0.000001 2.952117 1.011160 13.530162 0.472466 -2.045689 26.006739 -0.000001 -0.000001 -0.000003 0.105321 -3.658228 2.530026 0.585002 -2.261682 29.000635 -0.000002 0.000002 -0.000004 0.455254 -7.625808 4.309852 0.107462 -0.995710 12.318863 0.000002 -0.000000 -0.000000 -11.164698 -10.228257 7.169454 0.029109 -0.520499 6.403082 -0.000004 0.000001 0.000001 0.000004 -0.000001 0.000002 0.000000 0.000000 0.000000 0.000001 0.000000 -0.000000 0.000000 0.000000 -0.000000 0.000000 0.000000 -0.000000 0.000000 0.000000 0.000000 0.000001 0.000000 -0.000000 0.000000 0.000000 -0.000000 0.000000 0.000000 -0.000000 0.000000 0.000000 0.000000 0.000001 0.000000 -0.000000 0.000000 0.000000 -0.000000 0.000000 0.000000 -0.000000 0.000000 0.000000 -0.000000 
-0.005352 41.850525 1.202085 0.220764 0.182317 0.960975 -0.000000 0.000000 -0.000000 -87.604361 -5.005790 10.986797 82.769004 6.712566 0.275668 5.765794 -7.060309 -5.574883 -0.000000 -0.000000 -0.000000 0.000000 0.000000 -0.000000 -88.382429 6.608192 -7.314887 82.809186 -6.400415 -1.914551 6.787973 0.007300 6.694898 -0.000000 0.000001 0.000000 -0.000000 -0.000000 -0.000000 10.467095 0.008532 -1.572320 -0.063329 0.215446 -0.380943 -0.135199 0.251406 -0.311500 -0.819938 -1.276514 0.424692 -9.824153 -4.410230 -5.195477 -0.000000 -0.000000 -0.000000 -0.000000 -0.000000 -0.000000 -0.000000 -0.000000 -0.000001 -0.000000 -0.000000 -0.000000 -0.000000 0.000000 -0.000000 -0.000000 -0.000000 -0.000000 -0.000000 0.000000 -0.000000 -0.000000 -0.000000 -0.000000 -0.000000 -0.000000 -0.000000 1.153612 -14.769748 -6.772561 2.903380 -20.762694 -57.237719 -0.000028 -61.769635 -0.000026 32.795187 3.652903 41.345047 6.533102 1.838525 20.872496 2.677549 20.203952 -24.333469 -0.000000 -0.000003 0.000000 -0.213799 2.829573 -27.080115 0.399410 2.127917 -21.258960 -0.000002 0.000001 0.000000 1.306677 7.335262 -16.626924 0.323893 1.922689 -19.122274 0.000004 0.000002 -0.000006 1.816476 9.843943 -14.270837 0.205431 1.539299 -15.202387 -0.000001 0.000001 -0.000001 2.011316 10.855363 -13.919871 0.168839 1.397688 -13.774332 -0.000000 -0.000001 0.000003 0.000001 -0.000000 0.000002 3.187852 -4.727845 8.245238 -4.932282 37.148385 65.022124 0.000007 54.880092 0.000003 44.176509 5.104097 -36.335353 -9.372631 -1.608886 -17.589749 3.594658 -24.360886 34.677376 -0.000002 -0.000001 0.000000 2.953648 1.011711 13.517893 0.476475 -2.053893 26.119038 -0.000000 0.000001 -0.000005 0.105330 -3.658246 2.530065 0.587660 -2.266496 29.068042 0.000003 -0.000002 -0.000005 0.455262 -7.625853 4.309872 0.108241 -0.999302 12.364092 -0.000002 0.000001 -0.000002 -11.166260 -10.222017 7.155016 0.029203 -0.521239 6.412217 0.000000 0.000000 -0.000001 0.000001 -0.000004 0.000001 -0.000000 -0.000000 0.000000 -0.000000 -0.000000 0.000000 -0.000000 -0.000000 0.000000 -0.000000 -0.000000 0.000000 -0.000000 -0.000000 0.000000 -0.000000 -0.000000 0.000000 -0.000000 -0.000000 0.000000 -0.000000 -0.000000 0.000000 -0.000000 -0.000000 0.000000 -0.000000 -0.000000 0.000000 -0.000000 0.000000 -0.000000 -0.000000 0.000000 -0.000000 -0.000000 0.000000 -0.000000 
-0.005479 41.834396 1.215805 0.269334 0.192329 0.962951 0.000000 -0.000000 -0.000000 -87.773818 -5.014075 10.920425 82.781271 6.753667 0.332847 6.049490 -6.971958 -5.564268 -0.000000 -0.000000 -0.000000 0.000000 -0.000001 -0.000000 -88.588667 6.644507 -7.204408 82.998724 -6.427802 -2.004464 6.935121 -0.095765 6.663125 0.000000 0.000000 0.000000 0.000000 0.000000 -0.000000 10.538160 0.004245 -1.573856 0.117319 0.217353 -0.407599 -0.022414 0.256674 -0.330248 -0.608621 -1.274648 0.376579 -10.758939 -4.494758 -5.054919 0.000000 -0.000000 -0.000000 0.000000 -0.000000 -0.000000 0.000000 -0.000000 -0.000000 0.000000 -0.000000 -0.000000 0.000000 0.000000 -0.000000 0.000000 -0.000000 -0.000000 0.000000 0.000000 -0.000000 0.000000 -0.000000 -0.000000 0.000000 -0.000000 -0.000000 1.483756 -14.226182 -5.573873 1.069122 -20.426972 -59.574194 0.000022 -61.355084 0.000029 34.405910 2.995985 41.065068 6.452950 1.879076 20.945117 2.637612 20.235361 -24.276325 0.000001 -0.000000 -0.000000 -0.202170 2.869527 -27.281743 0.403273 2.137801 -21.362733 0.000003 0.000000 -0.000002 1.314182 7.336094 -16.743273 0.317877 1.905280 -18.942394 0.000002 -0.000000 0.000002 1.837834 9.880248 -14.375277 0.203778 1.533238 -15.140796 -0.000000 0.000001 0.000000 1.980432 10.842496 -13.919523 0.169159 1.399066 -13.787686 0.000002 -0.000001 -0.000001 -0.000000 0.000002 -0.000002 3.198765 -5.102191 7.675741 -5.994465 37.040167 66.362350 -0.000030 54.665723 0.000036 44.858422 5.503221 -36.428855 -9.351720 -1.600090 -17.560036 3.651755 -24.412472 34.712353 0.000002 -0.000001 0.000002 2.954279 1.012345 13.493651 0.483862 -2.068881 26.324312 -0.000000 0.000001 -0.000001 0.105318 -3.658220 2.530062 0.592585 -2.275324 29.192085 -0.000001 0.000001 0.000001 0.455261 -7.625819 4.309881 0.109722 -1.006029 12.448358 -0.000001 0.000000 -0.000002 -11.173436 -10.204952 7.126061 0.029265 -0.521847 6.419542 0.000003 0.000000 0.000001 -0.000001 0.000000 -0.000001 -0.000000 0.000000 0.000000 -0.000000 0.000000 -0.000000 -0.000000 0.000000 -0.000000 -0.000000 0.000000 -0.000000 -0.000000 0.000000 0.000000 -0.000000 0.000000 -0.000000 -0.000000 0.000000 -0.000000 -0.000000 0.000000 -0.000000 -0.000000 0.000000 0.000000 -0.000000 0.000000 -0.000000 0.000000 -0.000000 -0.000000 0.000000 -0.000000 -0.000000 0.000000 -0.000000 -0.000000 
-0.005624 41.816536 1.228994 0.302158 0.201102 0.965190 -0.000000 -0.000000 -0.000000 -87.983901 -5.025681 10.833977 82.840257 6.827241 0.413940 6.291821 -6.847168 -5.590403 -0.000000 0.000001 0.000000 0.000000 0.000000 -0.000001 -88.815313 6.669622 -7.064390 83.196472 -6.438448 -2.128935 7.163009 -0.240452 6.640692 0.000000 0.000000 0.000000 0.000000 0.000000 -0.000000 10.629222 -0.000003 -1.575425 0.315335 0.220705 -0.432224 0.118233 0.263075 -0.353243 -0.378664 -1.271492 0.326493 -11.685035 -4.574095 -4.904680 -0.000000 -0.000000 -0.000000 -0.000000 -0.000000 -0.000000 -0.000000 -0.000000 -0.000001 -0.000000 -0.000000 -0.000000 -0.000000 -0.000000 -0.000000 -0.000000 -0.000000 -0.000000 -0.000000 -0.000000 -0.000000 -0.000000 -0.000000 -0.000000 -0.000000 -0.000000 -0.000000 1.802074 -13.648142 -4.308315 -0.710267 -20.139151 -61.883399 -0.000039 -60.953694 -0.000045 35.923684 2.343236 40.900843 6.371249 1.919666 21.018738 2.597060 20.266834 -24.218323 0.000000 -0.000000 -0.000001 -0.189488 2.911297 -27.505097 0.407952 2.149729 -21.487814 0.000002 -0.000001 -0.000002 1.321734 7.336935 -16.860351 0.311935 1.887864 -18.762634 -0.000001 0.000000 0.000002 1.860536 9.917035 -14.489254 0.201469 1.524653 -15.054184 0.000002 0.000001 0.000001 1.949159 10.829358 -13.919231 0.169489 1.400396 -13.801260 -0.000003 -0.000001 -0.000001 0.000000 -0.000000 0.000001 3.202636 -5.492630 7.084809 -7.091217 36.919703 67.729290 -0.000028 54.479368 0.000036 45.560316 5.928801 -36.554687 -9.324217 -1.588520 -17.520820 3.726584 -24.479041 34.758232 -0.000003 0.000000 0.000000 2.954051 1.012864 13.461920 0.493635 -2.088494 26.593553 0.000002 0.000002 -0.000001 0.105327 -3.658259 2.529999 0.599065 -2.286870 29.355118 0.000001 -0.000001 -0.000001 0.455253 -7.625782 4.309844 0.111686 -1.014846 12.559482 -0.000000 -0.000001 -0.000000 -11.184664 -10.181531 7.087828 0.029326 -0.522423 6.426607 -0.000001 0.000001 0.000001 0.000000 -0.000001 0.000004 0.000000 0.000000 0.000000 0.000000 -0.000000 0.000000 0.000000 0.000000 -0.000000 0.000000 0.000000 -0.000000 0.000000 0.000000 0.000000 0.000000 -0.000000 0.000000 0.000000 0.000000 -0.000000 0.000000 0.000000 -0.000000 0.000000 0.000000 0.000000 0.000000 -0.000000 0.000000 -0.000000 -0.000000 -0.000000 -0.000000 -0.000000 -0.000000 -0.000000 -0.000000 -0.000000 
